# AST/ASF file generated using VICON BodyLanguage
# -----------------------------------------------
:version 1.10
:name VICON
:units
  mass 1.0
  length 0.45
  angle deg
:documentation
   .ast/.asf automatically generated from VICON data using
   VICON BodyBuilder and BodyLanguage model FoxedUp or BRILLIANT.MOD
:root
   order TX TY TZ RX RY RZ
   axis XYZ
   position 0 0 0  
   orientation 0 0 0 
:bonedata
  begin
     id 1 
     name lhipjoint
     direction 0.541323 -0.757556 0.364798 
     length 2.47576 
     axis 0 0 0  XYZ
  end
  begin
     id 2 
     name lfemur
     direction 0.34202 -0.939693 0  
     length 7.46493  
     axis 0 0 20  XYZ
    dof rx ry rz
    limits (-160.0 20.0)
           (-70.0 70.0)
           (-60.0 70.0)
  end
  begin
     id 3 
     name ltibia
     direction 0.34202 -0.939693 0   
     length 7.73805   
     axis 0 0 20   XYZ
    dof rx
    limits (-10.0 170.0)
  end
  begin
     id 4 
     name lfoot
     direction 0.107174 -0.294458 0.949636   
     length 2.25864   
     axis -90 7.62852e-016 20   XYZ
    dof rx rz
    limits (-45.0 90.0)
           (-70.0 20.0)
  end
  begin
     id 5 
     name ltoes
     direction 1.53606e-011 -4.21934e-011 1   
     length 1.12451   
     axis -90 7.62852e-016 20   XYZ
    dof rx
    limits (-90.0 20.0)
  end
  begin
     id 6 
     name rhipjoint
     direction -0.524745 -0.766967 0.36933   
     length 2.44538  
     axis 0 0 0  XYZ 
  end
  begin
     id 7 
     name rfemur
     direction -0.34202 -0.939693 0   
     length 7.61604   
     axis 0 0 -20   XYZ
    dof rx ry rz
    limits (-160.0 20.0)
           (-70.0 70.0)
           (-70.0 60.0)
  end
  begin
     id 8 
     name rtibia
     direction -0.34202 -0.939693 0   
     length 7.61056   
     axis 0 0 -20   XYZ
    dof rx
    limits (-10.0 170.0)
 end
 begin
     id 9 
     name rfoot
     direction -0.12616 -0.346623 0.929482   
     length 2.46372  
     axis -90 -7.62852e-016 -20   XYZ
    dof rx rz
    limits (-45.0 90.0)
           (-20.0 70.0)
  end
  begin
     id 10 
     name rtoes
     direction -1.53531e-011 -4.22004e-011 1   
     length 1.21611   
     axis -90 -7.62852e-016 -20   XYZ
    dof rx
    limits (-90.0 20.0)
  end
  begin
     id 11 
     name lowerback
     direction -0.000778023 0.997293 -0.0735223   
     length 2.06139   
     axis 0 0 0   XYZ
    dof rx ry rz
    limits (-20.0 45.0)
           (-30.0 30.0)
           (-30.0 30.0)
  end
  begin
     id 12 
     name upperback
     direction 0.0222598 0.999722 -0.0078355   
     length 2.06383   
     axis 0 0 0   XYZ
    dof rx ry rz
    limits (-20.0 45.0)
           (-30.0 30.0)
           (-30.0 30.0)
  end
  begin
     id 13 
     name thorax
     direction 0.0219654 0.999405 0.0265994   
     length 2.07163   
     axis 0 0 0   XYZ
    dof rx ry rz
    limits (-20.0 45.0)
           (-30.0 30.0)
           (-30.0 30.0)
  end
  begin
     id 14 
     name lowerneck
     direction 0.0213282 0.988147 0.15202   
     length 1.75969   
     axis 0 0 0   XYZ
    dof rx ry rz
    limits (-20.0 45.0)
           (-30.0 30.0)
           (-30.0 30.0)
  end
  begin
     id 15 
     name upperneck
     direction -0.0546456 0.982624 -0.177379   
     length 1.79244   
     axis 0 0 0   XYZ
    dof rx ry rz
    limits (-20.0 45.0)
           (-30.0 30.0)
           (-30.0 30.0)
  end
  begin
     id 16
     name head
     direction -0.0199987 0.996855 -0.076686  
     length 1.80555  
     axis 0 0 0   XYZ
    dof rx ry rz
    limits (-20.0 45.0)
           (-30.0 30.0)
           (-30.0 30.0)
  end
  begin
     id 17 
     name lclavicle
     direction 0.929565 0.363219 -0.063096  
     length 3.55722  
     axis 0 0 0   XYZ
    dof ry rz
    limits (-20.0 10.0)
           (0.0 20.0)
  end
  begin
     id 18 
     name lhumerus
     direction 1 -4.48993e-011 -2.36203e-027   
     length 4.92785   
     axis 180 -30 -90   XYZ
    dof rx ry rz
    limits (-60.0 90.0)
           (-90.0 90.0)
           (-90.0 90.0)
  end
  begin
     id 19
     name lradius
     direction 1 -4.48947e-011 2.02997e-027   
     length 3.44052   
     axis 180 -30 -90   XYZ
    dof rx
    limits (-10.0 170.0)
  end
  begin
     id 20
     name lwrist
     direction 1 -4.48962e-011 1.45991e-027   
     length 1.72026   
     axis 1.49639e-024 90 90   XYZ
    dof ry
    limits (-180.0 0.0)
 end
  begin
     id 21 
     name lhand
     direction 1 -4.48984e-011 2.91906e-027   
     length 0.654326   
     axis -1.863e-015 90 90   XYZ
    dof rx rz
    limits (-90.0 90.0)
           (-45.0 45.0)
  end
  begin
     id 22 
     name lfingers
     direction 1 -4.48961e-011 5.83968e-027   
     length 0.527534   
     axis -3.72598e-015 90 90   XYZ
    dof rx
    limits (0.0 90.0)
  end
  begin
     id 23
     name lthumb
     direction 0.707107 -6.34963e-011 0.707107   
     length 0.757437   
     axis -90 45 -6.68868e-015   XYZ
    dof rx rz
    limits (-45.0 45.0)
           (-45.0 45.0)
  end
  begin
     id 24 
     name rclavicle
     direction -0.902944 0.422599 -0.0781198   
     length 3.54432  
     axis 0 0 0   XYZ 
    dof ry rz
    limits (-10.0 20.0)
           (-20.0 0.0)
  end
  begin
     id 25 
     name rhumerus
     direction -1 -4.48953e-011 -4.75835e-028  
     length 5.09181   
     axis 180 30 90   XYZ
    dof rx ry rz
    limits (-90.0 60.0)
           (-90.0 90.0)
           (-90.0 90.0)
  end
  begin
     id 26 
     name rradius
     direction -1 -4.48986e-011 -3.25889e-027   
     length 3.49865   
     axis 180 30 90   XYZ
    dof rx
    limits (-10.0 170.0)
  end
  begin
     id 27 
     name rwrist
     direction -1 -4.48963e-011 1.45989e-027   
     length 1.74933   
     axis 1.49639e-024 -90 -90   XYZ
    dof ry
    limits (-180.0 0.0)
  end
  begin
     id 28
     name rhand
     direction -1 -4.49003e-011 2.91844e-027   
     length 0.66641   
     axis -1.863e-015 -90 -90   XYZ
    dof rx rz
    limits (-90.0 90.0)
           (-45.0 45.0)
  end
  begin
     id 29
     name rfingers
     direction -1 -4.48973e-011 5.83886e-027   
     length 0.537277   
     axis -3.72598e-015 -90 -90   XYZ
    dof rx
    limits (0.0 90.0)
  end
  begin
     id 30
     name rthumb
     direction -0.707107 -6.34976e-011 0.707107   
     length 0.771425   
     axis -90 -45 6.68868e-015   XYZ
    dof rx rz
    limits (-45.0 45.0)
           (-45.0 45.0)
  end
:hierarchy
  begin
    root lhipjoint rhipjoint lowerback
    lhipjoint lfemur
    lfemur ltibia
    ltibia lfoot
    lfoot ltoes
    rhipjoint rfemur
    rfemur rtibia
    rtibia rfoot
    rfoot rtoes
    lowerback upperback
    upperback thorax
    thorax lowerneck lclavicle rclavicle
    lowerneck upperneck
    upperneck head
    lclavicle lhumerus
    lhumerus lradius
    lradius lwrist
    lwrist lhand lthumb
    lhand lfingers
    rclavicle rhumerus
    rhumerus rradius
    rradius rwrist
    rwrist rhand rthumb
    rhand rfingers
  end

#!OML:ASF H:\LiuWeirdWalks\Patient Classification 1\Patient 1\Session 1\male.ASF
:FULLY-SPECIFIED
:DEGREES
80
root 0.366535 18.0117 -30.4241 1.92336 21.4125 0.999485
lowerback 2.56888 7.44826 -0.312418
upperback -0.618315 10.0039 2.95529
thorax -2.64551 5.02767 2.68129
lowerneck 11.8776 16.1229 25.677
upperneck 4.176 26.0774 -22.6328
head 5.80023 13.693 -9.43912
rclavicle -2.19781e-014 1.27222e-014
rhumerus -39.3185 -16.1179 -64.5977
rradius 28.4321
rwrist -8.56482
rhand -16.5587 -3.64801
rfingers 7.12502
rthumb 9.66111 -33.4065
lclavicle -2.19781e-014 1.27222e-014
lhumerus -33.6067 3.22989 86.6948
lradius 23.9933
lwrist 4.429
lhand -10.3717 0.231648
lfingers 7.12502
lthumb 15.6257 29.6206
rfemur -3.13704 -7.38656 15.8418
rtibia 25.5727
rfoot -14.0507 -28.1008
rtoes -1.90236
lfemur -8.08272 -7.97679 -19.516
ltibia 22.1616
lfoot -9.59531 6.9279
ltoes -29.396
81
root 0.371301 18.011 -30.4291 1.92184 21.2634 1.02587
lowerback 2.56628 7.34979 -0.359699
upperback -0.564634 9.87266 3.06058
thorax -2.60819 4.96401 2.82513
lowerneck 12.0443 16.2347 25.4532
upperneck 3.98368 26.2202 -22.695
head 5.72941 13.7713 -9.42506
rclavicle -7.37367e-014 1.27222e-014
rhumerus -39.0237 -15.6578 -64.7959
rradius 28.6486
rwrist -8.71573
rhand -16.5497 -3.62856
rfingers 7.12502
rthumb 9.66979 -33.3866
lclavicle -7.37367e-014 1.27222e-014
lhumerus -33.6109 3.51544 86.779
lradius 24.0255
lwrist 4.37949
lhand -10.3536 0.196914
lfingers 7.12502
lthumb 15.6431 29.5845
rfemur -3.17666 -7.36763 15.7703
rtibia 25.6113
rfoot -14.0697 -27.9616
rtoes -1.88053
lfemur -8.05834 -7.92215 -19.5734
ltibia 22.1551
lfoot -9.56913 7.01402
ltoes -29.2755
82
root 0.375836 18.0102 -30.4342 1.92582 21.1461 1.06472
lowerback 2.59039 7.33551 -0.365336
upperback -0.576073 9.85461 3.07751
thorax -2.63639 4.95542 2.84198
lowerneck 12.1107 16.2483 25.4222
upperneck 3.97293 26.2476 -22.6836
head 5.71623 13.7887 -9.41975
rclavicle -6.59717e-014 2.54444e-014
rhumerus -38.9812 -15.4695 -64.9148
rradius 28.8953
rwrist -8.84004
rhand -16.5542 -3.61452
rfingers 7.12502
rthumb 9.6655 -33.3728
lclavicle -6.59717e-014 2.54444e-014
lhumerus -33.657 3.40943 86.8855
lradius 24.067
lwrist 4.41364
lhand -10.3619 0.166958
lfingers 7.12502
lthumb 15.6351 29.5551
rfemur -3.21187 -7.37472 15.6865
rtibia 25.6499
rfoot -14.0968 -27.8265
rtoes -1.86006
lfemur -8.04258 -7.86884 -19.6416
ltibia 22.1542
lfoot -9.54325 7.07309
ltoes -29.3738
83
root 0.379848 18.0093 -30.4397 1.9329 21.0549 1.10433
lowerback 2.65 7.40634 -0.316123
upperback -0.652157 9.9515 3.00525
thorax -2.73248 5.00245 2.72255
lowerneck 12.066 16.1669 25.5974
upperneck 4.14586 26.1667 -22.6164
head 5.76957 13.7483 -9.42746
rclavicle -1.98909e-014 -6.36111e-015
rhumerus -39.1866 -15.5593 -64.9658
rradius 29.1787
rwrist -8.94722
rhand -16.5757 -3.60007
rfingers 7.12502
rthumb 9.64477 -33.3593
lclavicle -1.98909e-014 -6.36111e-015
lhumerus -33.7386 2.91681 87.0096
lradius 24.1195
lwrist 4.48863
lhand -10.3985 0.194512
lfingers 7.12502
lthumb 15.5998 29.5854
rfemur -3.2461 -7.39263 15.6057
rtibia 25.6865
rfoot -14.1325 -27.7037
rtoes -1.84277
lfemur -8.03948 -7.81799 -19.7068
ltibia 22.1612
lfoot -9.52183 7.11042
ltoes -29.6085
84
root 0.382586 18.0084 -30.4457 1.92815 20.9907 1.12016
lowerback 2.7452 7.59752 -0.185423
upperback -0.820505 10.2118 2.83104
thorax -2.91917 5.12836 2.43438
lowerneck 11.951 15.9263 26.0556
upperneck 4.5111 25.9027 -22.4712
head 5.87358 13.6183 -9.47074
rclavicle 1.77142e-013 2.8625e-014
rhumerus -39.7662 -16.0129 -64.896
rradius 29.5304
rwrist -9.03959
rhand -16.6058 -3.5785
rfingers 7.12502
rthumb 9.61574 -33.339
lclavicle 1.77142e-013 2.8625e-014
lhumerus -33.891 1.91584 87.1707
lradius 24.1731
lwrist 4.64622
lhand -10.4417 0.226865
lfingers 7.12502
lthumb 15.5583 29.621
rfemur -3.27258 -7.39839 15.5604
rtibia 25.7184
rfoot -14.1773 -27.6142
rtoes -1.81223
lfemur -8.04604 -7.76911 -19.7407
ltibia 22.1789
lfoot -9.51229 7.12491
ltoes -29.8274
85
root 0.384214 18.0076 -30.4522 1.91561 20.9505 1.10926
lowerback 2.86801 7.79853 -0.0225876
upperback -1.0103 10.4872 2.6459
thorax -3.13371 5.26021 2.11132
lowerneck 11.816 15.672 26.5249
upperneck 4.87501 25.6098 -22.3026
head 5.9705 13.4744 -9.51253
rclavicle 1.12984e-013 -4.77083e-015
rhumerus -40.4081 -16.5217 -64.8015
rradius 29.8912
rwrist -9.12196
rhand -16.635 -3.51685
rfingers 7.12502
rthumb 9.58753 -33.2787
lclavicle 1.12984e-013 -4.77083e-015
lhumerus -34.0515 0.850626 87.3343
lradius 24.2265
lwrist 4.82841
lhand -10.5133 0.278946
lfingers 7.12502
lthumb 15.4893 29.6785
rfemur -3.29765 -7.38971 15.5533
rtibia 25.7449
rfoot -14.2267 -27.5591
rtoes -1.77477
lfemur -8.06733 -7.72599 -19.7408
ltibia 22.2076
lfoot -9.51564 7.12364
ltoes -30.1017
86
root 0.386496 18.0067 -30.4579 1.89253 20.8867 1.08337
lowerback 2.94732 7.91744 0.10542
upperback -1.10195 10.6513 2.54763
thorax -3.23794 5.3377 1.91561
lowerneck 11.6667 15.5535 26.7481
upperneck 5.0689 25.4467 -22.1669
head 6.02202 13.3884 -9.5097
rclavicle 1.40093e-013 1.59028e-014
rhumerus -40.7439 -16.7987 -64.7901
rradius 30.1994
rwrist -9.20162
rhand -16.6516 -3.44971
rfingers 7.12502
rthumb 9.57151 -33.2123
lclavicle 1.40093e-013 1.59028e-014
lhumerus -34.1051 0.156597 87.478
lradius 24.2901
lwrist 4.97733
lhand -10.6075 0.374117
lfingers 7.12502
lthumb 15.3986 29.7806
rfemur -3.31854 -7.36642 15.5578
rtibia 25.7701
rfoot -14.2679 -27.4945
rtoes -1.74367
lfemur -8.07975 -7.68801 -19.7293
ltibia 22.2436
lfoot -9.52981 7.15265
ltoes -30.6564
87
root 0.389708 18.0055 -30.4626 1.86335 20.7969 1.05028
lowerback 2.94838 7.93215 0.16618
upperback -1.11041 10.6745 2.57385
thorax -3.24231 5.34844 1.90785
lowerneck 11.6161 15.546 26.6935
upperneck 5.12279 25.4145 -22.08
head 6.01819 13.3681 -9.47539
rclavicle -2.50469e-014 1.27222e-014
rhumerus -40.7907 -16.7282 -64.8437
rradius 30.4514
rwrist -9.28775
rhand -16.6675 -3.38877
rfingers 7.12502
rthumb 9.5562 -33.1521
lclavicle -2.50469e-014 1.27222e-014
lhumerus -34.1238 -0.0516472 87.6055
lradius 24.3626
lwrist 5.05269
lhand -10.7052 0.463487
lfingers 7.12502
lthumb 15.3045 29.8772
rfemur -3.34107 -7.3371 15.5636
rtibia 25.8032
rfoot -14.2975 -27.4137
rtoes -1.72768
lfemur -8.08043 -7.64102 -19.7152
ltibia 22.2786
lfoot -9.55804 7.20335
ltoes -31.0533
88
root 0.393894 18.0041 -30.4672 1.84514 20.6979 1.0404
lowerback 2.91793 7.91155 0.200153
upperback -1.07361 10.6483 2.62377
thorax -3.18964 5.33554 1.94977
lowerneck 11.5658 15.5942 26.5332
upperneck 5.098 25.4366 -22.0069
head 5.99181 13.3717 -9.42273
rclavicle 7.77745e-015 -3.18055e-015
rhumerus -40.6986 -16.575 -64.9348
rradius 30.6667
rwrist -9.35398
rhand -16.6777 -3.32668
rfingers 7.12502
rthumb 9.54631 -33.0904
lclavicle 7.77745e-015 -3.18055e-015
lhumerus -34.0709 -0.0777645 87.7027
lradius 24.411
lwrist 5.07896
lhand -10.8017 0.557235
lfingers 7.12502
lthumb 15.2115 29.978
rfemur -3.37561 -7.3286 15.5366
rtibia 25.8514
rfoot -14.3103 -27.3087
rtoes -1.73503
lfemur -8.07648 -7.58601 -19.7296
ltibia 22.3059
lfoot -9.58473 7.258
ltoes -31.4288
89
root 0.398937 18.0025 -30.4715 1.84078 20.5935 1.06508
lowerback 2.87712 7.86412 0.206479
upperback -1.01032 10.5844 2.68171
thorax -3.10874 5.30447 2.02037
lowerneck 11.61 15.6541 26.396
upperneck 4.93519 25.4894 -22.0277
head 5.93272 13.3966 -9.40908
rclavicle -9.77027e-014 -3.18055e-015
rhumerus -40.5137 -16.364 -65.0528
rradius 30.8514
rwrist -9.39865
rhand -16.6825 -3.27384
rfingers 7.12502
rthumb 9.54166 -33.0378
lclavicle -9.77027e-014 -3.18055e-015
lhumerus -33.9756 0.022663 87.7718
lradius 24.45
lwrist 5.07999
lhand -10.872 0.627424
lfingers 7.12502
lthumb 15.1438 30.0533
rfemur -3.42201 -7.34128 15.4651
rtibia 25.9192
rfoot -14.3221 -27.181
rtoes -1.75375
lfemur -8.06596 -7.52653 -19.7843
ltibia 22.3218
lfoot -9.60718 7.31562
ltoes -31.5576
90
root 0.403729 18.0009 -30.4764 1.84896 20.5143 1.11818
lowerback 2.85593 7.80461 0.201752
upperback -0.954869 10.5039 2.72442
thorax -3.04513 5.265 2.07888
lowerneck 11.6227 15.7205 26.239
upperneck 4.80114 25.5433 -22.0268
head 5.88186 13.4198 -9.38223
rclavicle -3.44643e-014 -2.38542e-014
rhumerus -40.3246 -16.1646 -65.172
rradius 31.0162
rwrist -9.41088
rhand -16.6817 -3.23169
rfingers 7.12502
rthumb 9.54249 -32.9956
lclavicle -3.44643e-014 -2.38542e-014
lhumerus -33.8658 0.152867 87.8107
lradius 24.4658
lwrist 5.06505
lhand -10.9221 0.680677
lfingers 7.12502
lthumb 15.0955 30.1102
rfemur -3.47847 -7.37417 15.3648
rtibia 26.0043
rfoot -14.3288 -27.0615
rtoes -1.78441
lfemur -8.05819 -7.45751 -19.8668
ltibia 22.3274
lfoot -9.62479 7.34038
ltoes -31.3271
